# xmcd
#
# Track frame offsets:
#	150
#	12873
#	24188
#	32363
#	46436
#
# Disc length: 740 seconds
#
# Revision: 1
# Processed by: cddbd v1.5.2PL0 Copyright (c) Steve Scherf et al.
# Submitted via: audiograbber 1.83.01
#
DISCID=2a02e205
DTITLE=Smokey and the Bandits - Red Dirt Honkey Tonk
DYEAR=2013
DGENRE=Country
TTITLE0=You Are Never Nice To Me
TTITLE1=If You Leaving
TTITLE2=Sam's Place
TTITLE3=Kansas City Southern
TTITLE4=If You Should Come Back
EXTD=
EXTT0=
EXTT1=
EXTT2=
EXTT3=
EXTT4=
PLAYORDER=
